# xmcd CD database file
#
# Track frame offsets:
#	150
#	11567
#	22342
#	35585
#	45155
#	58075
#	68380
#	80572
#	93010
#	102990
#	112310
#	121170
#	131665
#	143565
#
# Disc length: 2105 seconds
#
# Revision: 1
# Processed by: cddbd v1.5.1PL0 Copyright (c) Steve Scherf et al.
# Submitted via: CDex 1.51
#
DISCID=b608370e
DTITLE=Hank Locklin - Geisha girl
DYEAR=1995
DGENRE=Country
TTITLE0=Send Me The Pillow That You Dream On
TTITLE1=Please Help Me I'm Falling
TTITLE2=Happy Birthday To Me
TTITLE3=Geisha Girl
TTITLE4=Daytime Love Affair
TTITLE5=Let Me Be The One
TTITLE6=It's A Little More Like Heaven
TTITLE7=From Here To There To You
TTITLE8=We're Gonna Go Fishin'
TTITLE9=Flying South
TTITLE10=Don't Mention My Name
TTITLE11=Night Life Queen
TTITLE12=There Never Was A Time
TTITLE13=Hello Dolly (with Carol Channing)
EXTD=YEAR: 1995
EXTT0=
EXTT1=
EXTT2=
EXTT3=
EXTT4=
EXTT5=
EXTT6=
EXTT7=
EXTT8=
EXTT9=
EXTT10=
EXTT11=
EXTT12=
EXTT13=
PLAYORDER=
